<svg xmlns="http://www.w3.org/2000/svg" viewBox="0 0 120 120" role="img" aria-label="planejador">
  <rect width="120" height="120" rx="12" fill="#061a36"/>
  <path d="M30 18l24 17h13l23-17-11 29c10 7 16 20 16 35 0 18-15 27-35 27s-35-9-35-27c0-15 6-28 16-35L30 18z" fill="#f7f9fd"/>
  <path d="M32 70c-6 8-8 18-6 29 8-5 14-12 19-22M89 70c6 8 8 18 6 29-8-5-14-12-19-22" fill="#e5e9ef"/>
  <path d="M36 31l20 16h9l20-16" fill="none" stroke="#061a36" stroke-width="6" stroke-linecap="round" stroke-linejoin="round"/>
  <circle cx="50" cy="54" r="11" fill="none" stroke="#061a36" stroke-width="4"/>
  <circle cx="70" cy="54" r="11" fill="none" stroke="#061a36" stroke-width="4"/>
  <circle cx="50" cy="54" r="5" fill="#061a36"/>
  <circle cx="70" cy="54" r="5" fill="#061a36"/>
  <path d="M56 65h8l-4 11-4-11z" fill="#061a36"/>
  <rect x="32" y="71" width="25" height="30" rx="3" fill="#f7f9fd" stroke="#061a36" stroke-width="4"/>
  <path d="M37 78h10M37 86h11M37 94h8" stroke="#3d8bff" stroke-width="3" stroke-linecap="round"/>
  <path d="M68 92l14-38" stroke="#061a36" stroke-width="6" stroke-linecap="round"/>
  <path d="M78 54l8 3-3 8" fill="#3d8bff"/>
</svg>
