<svg xmlns="http://www.w3.org/2000/svg" viewBox="0 0 120 120" role="img" aria-label="pesquisador">
  <rect width="120" height="120" rx="12" fill="#061a36"/>
  <path d="M31 18l24 17h12l22-17-10 28c10 7 16 19 16 34 0 18-15 28-35 28s-35-10-35-28c0-15 6-27 16-34L31 18z" fill="#f7f9fd"/>
  <path d="M33 70c-6 8-8 18-6 29 8-5 14-12 19-22M88 70c6 8 8 18 6 29-8-5-14-12-19-22" fill="#e5e9ef"/>
  <path d="M37 31l20 16h8l19-16" fill="none" stroke="#061a36" stroke-width="6" stroke-linecap="round" stroke-linejoin="round"/>
  <circle cx="50" cy="54" r="11" fill="none" stroke="#061a36" stroke-width="4"/>
  <circle cx="70" cy="54" r="11" fill="none" stroke="#061a36" stroke-width="4"/>
  <circle cx="50" cy="54" r="5" fill="#061a36"/>
  <circle cx="70" cy="54" r="5" fill="#061a36"/>
  <path d="M56 65h8l-4 11-4-11z" fill="#061a36"/>
  <circle cx="35" cy="75" r="15" fill="none" stroke="#f7f9fd" stroke-width="7"/>
  <circle cx="35" cy="75" r="15" fill="none" stroke="#061a36" stroke-width="4"/>
  <path d="M46 86l10 10" stroke="#061a36" stroke-width="6" stroke-linecap="round"/>
  <rect x="67" y="72" width="22" height="29" rx="3" fill="#f7f9fd" stroke="#061a36" stroke-width="4"/>
  <path d="M73 80h8M73 88h10" stroke="#3d8bff" stroke-width="3" stroke-linecap="round"/>
</svg>
