<svg xmlns="http://www.w3.org/2000/svg" viewBox="0 0 120 120" role="img" aria-label="supervisor">
  <rect width="120" height="120" rx="12" fill="#061a36"/>
  <path d="M28 17l25 18h14l25-18-12 31c9 8 14 20 14 34 0 18-14 27-34 27s-34-9-34-27c0-14 5-26 14-34L28 17z" fill="#f7f9fd"/>
  <path d="M32 67c-7 9-9 20-7 33 8-6 15-13 20-24M88 67c7 9 9 20 7 33-8-6-15-13-20-24" fill="#e5e9ef"/>
  <path d="M33 30l21 17h12l21-17" fill="none" stroke="#061a36" stroke-width="6" stroke-linecap="round" stroke-linejoin="round"/>
  <circle cx="49" cy="54" r="12" fill="none" stroke="#061a36" stroke-width="4"/>
  <circle cx="71" cy="54" r="12" fill="none" stroke="#061a36" stroke-width="4"/>
  <circle cx="49" cy="54" r="5" fill="#061a36"/>
  <circle cx="71" cy="54" r="5" fill="#061a36"/>
  <path d="M56 65h8l-4 12-4-12z" fill="#061a36"/>
  <path d="M48 74l12 6 12-6M60 80v25" stroke="#061a36" stroke-width="5" stroke-linecap="round"/>
  <path d="M72 82h9" stroke="#3d8bff" stroke-width="5" stroke-linecap="round"/>
</svg>
