<svg xmlns="http://www.w3.org/2000/svg" viewBox="0 0 512 512" width="512" height="512">
<defs>
  <radialGradient id="bg" cx="50%" cy="36%" r="78%">
    <stop offset="0" stop-color="#160a1c"/>
    <stop offset="0.55" stop-color="#0b0511"/>
    <stop offset="1" stop-color="#050208"/>
  </radialGradient>
  <radialGradient id="bloom" cx="50%" cy="50%" r="50%">
    <stop offset="0" stop-color="rgba(67,209,138,0.2)"/>
    <stop offset="0.5" stop-color="rgba(67,209,138,0.05600000000000001)"/>
    <stop offset="1" stop-color="rgba(67,209,138,0)"/>
  </radialGradient>
  <radialGradient id="spec" cx="50%" cy="50%" r="50%">
    <stop offset="0" stop-color="#ffffff" stop-opacity="0.85"/>
    <stop offset="0.4" stop-color="#ffe6df" stop-opacity="0.32"/>
    <stop offset="1" stop-color="#ffd9d0" stop-opacity="0"/>
  </radialGradient>
  <filter id="soft" x="-40%" y="-40%" width="180%" height="180%"><feGaussianBlur stdDeviation="3"/></filter>
  <filter id="glow" x="-60%" y="-60%" width="220%" height="220%"><feGaussianBlur stdDeviation="7"/></filter>
  <clipPath id="sq"><rect x="16" y="16" width="480" height="480" rx="114"/></clipPath>
  
    <radialGradient id="l-core" cx="50%" cy="50%" r="50%"><stop offset="0" stop-color="#eafff3"/><stop offset="0.4" stop-color="#5fe6a8"/><stop offset="1" stop-color="#1f8f63" stop-opacity="0"/></radialGradient>
    <linearGradient id="l-ecg" x1="0" y1="0" x2="1" y2="0"><stop offset="0" stop-color="#43d18a" stop-opacity="0"/><stop offset="0.5" stop-color="#aef7d2"/><stop offset="1" stop-color="#43d18a" stop-opacity="0"/></linearGradient>
</defs>
<rect x="16" y="16" width="480" height="480" rx="114" fill="url(#bg)"/>
<g clip-path="url(#sq)">
  <rect x="16" y="16" width="480" height="480" fill="url(#bloom)"/>
  <circle cx="445.76" cy="305.83" r="1.01" fill="rgba(67,209,138,1)" opacity="0.25"/><circle cx="382.67" cy="403.24" r="0.94" fill="rgba(67,209,138,1)" opacity="0.44"/><circle cx="257.06" cy="446.79" r="1.31" fill="rgba(67,209,138,1)" opacity="0.41"/><circle cx="146.63" cy="397.39" r="1.70" fill="rgba(67,209,138,1)" opacity="0.25"/><circle cx="81.21" cy="305.6" r="1.81" fill="rgba(67,209,138,1)" opacity="0.33"/><circle cx="78.95" cy="239.62" r="2.49" fill="rgba(67,209,138,1)" opacity="0.47"/><circle cx="108.12" cy="133.56" r="2.52" fill="rgba(67,209,138,1)" opacity="0.24"/><circle cx="237.49" cy="61.07" r="2.01" fill="rgba(67,209,138,1)" opacity="0.26"/><circle cx="339.01" cy="61.49" r="1.60" fill="rgba(67,209,138,1)" opacity="0.25"/><circle cx="433.02" cy="193.01" r="1.08" fill="rgba(67,209,138,1)" opacity="0.41"/>
  
    <circle cx="256" cy="256" r="150" fill="none" stroke="#43d18a" stroke-width="3" opacity="0.30"/><circle cx="256" cy="256" r="116" fill="none" stroke="#43d18a" stroke-width="2.4" opacity="0.23"/><circle cx="256" cy="256" r="84" fill="none" stroke="#43d18a" stroke-width="1.8" opacity="0.16"/>
    <g filter="url(#soft)"><path d="M 94 256 L 184 256 L 206 238 L 228 302 L 252 168 L 276 288 L 298 256 L 418 256" fill="none" stroke="url(#l-ecg)" stroke-width="8" stroke-linejoin="round" stroke-linecap="round"/></g>
    <path d="M 94 256 L 184 256 L 206 238 L 228 302 L 252 168 L 276 288 L 298 256 L 418 256" fill="none" stroke="#eafff3" stroke-width="2.5" stroke-linejoin="round" stroke-linecap="round" opacity="0.5"/>
    <g filter="url(#glow)"><circle cx="256" cy="256" r="30" fill="url(#l-core)"/></g>
    <circle cx="256" cy="256" r="10" fill="#eafff3"/>
</g>
<rect x="16.75" y="16.75" width="478.5" height="478.5" rx="113.25" fill="none" stroke="rgba(67,209,138,0.22)" stroke-width="1.5"/>
</svg>